<svg width="133" height="95" viewBox="0 0 133 95" fill="none" xmlns="http://www.w3.org/2000/svg">
<path d="M36.5093 55.0755L36.6744 83.5385L9.81498 69.1745L36.5093 55.0755Z" fill="black"/>
<path d="M36.5093 55.0755L36.6744 83.5385L9.81498 69.1745L36.5093 55.0755Z" fill="#00C8A4"/>
<path d="M69.1229 41.4287L96.2407 55.1691L68.4106 70.0521L69.1229 41.4287Z" fill="black"/>
<path d="M69.1229 41.4287L96.2407 55.1691L68.4106 70.0521L69.1229 41.4287Z" fill="#00C8A4"/>
<path d="M70.7993 80.4137L130.486 48.1633V61.9849L70.7993 94.2353V80.4137Z" fill="black"/>
<path d="M121.682 58.0879L69.6341 30.3638L69.6341 16.5422L130.979 48.7927L121.682 58.0879Z" fill="black"/>
<path d="M46.7484 88.089L46.4391 24.0845L59.3617 30.9953L59.671 94.9998L46.7484 88.089Z" fill="black"/>
<path d="M0 48.7921L59.6869 16.5417V30.3633L0 62.6137V48.7921Z" fill="black"/>
</svg>
